<svg width="36" height="36" viewBox="0 0 36 36" fill="none" xmlns="http://www.w3.org/2000/svg">
<g clip-path="url(#clip0_90_3594)">
<path d="M18 2C14.8355 2 11.7421 2.93838 9.11088 4.69649C6.4797 6.45459 4.42894 8.95345 3.21793 11.8771C2.00693 14.8007 1.69008 18.0177 2.30744 21.1214C2.92481 24.2251 4.44866 27.0761 6.6863 29.3137C8.92394 31.5513 11.7749 33.0752 14.8786 33.6926C17.9823 34.3099 21.1993 33.9931 24.1229 32.7821C27.0466 31.5711 29.5454 29.5203 31.3035 26.8891C33.0616 24.2579 34 21.1645 34 18C34 13.7565 32.3143 9.68687 29.3137 6.68629C26.3131 3.68571 22.2435 2 18 2ZM28.45 12.63L15.31 25.76L7.55001 18C7.28479 17.7348 7.13579 17.3751 7.13579 17C7.13579 16.6249 7.28479 16.2652 7.55001 16C7.81522 15.7348 8.17493 15.5858 8.55001 15.5858C8.92508 15.5858 9.28479 15.7348 9.55001 16L15.33 21.78L26.47 10.65C26.6013 10.5187 26.7572 10.4145 26.9288 10.3434C27.1004 10.2724 27.2843 10.2358 27.47 10.2358C27.6557 10.2358 27.8396 10.2724 28.0112 10.3434C28.1828 10.4145 28.3387 10.5187 28.47 10.65C28.6013 10.7813 28.7055 10.9372 28.7766 11.1088C28.8476 11.2804 28.8842 11.4643 28.8842 11.65C28.8842 11.8357 28.8476 12.0196 28.7766 12.1912C28.7055 12.3628 28.6013 12.5187 28.47 12.65L28.45 12.63Z" fill="#0FA958"/>
</g>
<defs>
<clipPath id="clip0_90_3594">
<rect width="36" height="36" fill="white"/>
</clipPath>
</defs>
</svg>
